<svg xmlns="http://www.w3.org/2000/svg" version="1.1" xmlns:xlink="http://www.w3.org/1999/xlink" xmlns:svgjs="http://svgjs.com/svgjs" width="100%" height="100%"><svg width="100%" height="100%" viewBox="0 0 3035 3035" version="1.1" xmlns="http://www.w3.org/2000/svg" xmlns:xlink="http://www.w3.org/1999/xlink" xml:space="preserve" xmlns:serif="http://www.serif.com/" style="fill-rule:evenodd;clip-rule:evenodd;stroke-linejoin:round;stroke-miterlimit:2;">
    <g transform="matrix(3.3808,0,0,3.3808,-5943.21,-1437.46)">
        <path d="M2242.96,539.624C2236.19,543.352 2222.03,543.652 2193.73,544.599C2131.14,546.695 2127.73,538.838 2126.69,532.292C2125.64,525.744 2124.59,519.197 2129.83,510.032C2135.07,500.866 2146.33,482.272 2149.47,476.511C2152.61,470.75 2158.64,464.727 2165.71,464.727L2206.3,464.727C2213.89,464.727 2217.56,464.727 2227.25,480.963C2236.94,497.199 2248.2,511.341 2248.46,521.292C2248.6,526.743 2251.16,535.109 2242.96,539.624ZM2394.59,586.238C2378.88,581.262 2385.42,559.265 2369.19,559.265C2354.26,559.265 2352.95,564.502 2344.05,550.361C2335.14,536.219 2327.55,534.125 2310,534.125C2292.46,534.125 2297.43,521.816 2293.5,513.698C2289.57,505.58 2280.93,490.129 2262.86,458.441C2244.79,426.754 2244.79,425.183 2227.77,425.183L2147.11,425.183C2136.38,425.183 2128,434.873 2124.33,440.895C2120.66,446.919 2100.5,478.868 2091.07,496.676C2081.64,514.483 2082.69,511.865 2080.6,522.863C2078.5,533.862 2073.26,530.982 2054.67,532.553C2036.08,534.125 2034.51,543.552 2032.41,552.194C2030.32,560.836 2024.03,560.05 2015.65,560.05C2007.27,560.05 1994.44,560.574 1993.92,571.835C1993.39,583.096 1991.3,584.143 1981.87,585.714C1972.44,587.286 1962.23,595.142 1962.23,604.308L1962.23,635.733C1962.23,651.184 1968.51,659.564 1977.68,660.35C1986.84,661.136 1988.15,663.23 1992.34,673.182C1996.53,683.133 2000.72,688.371 2005.44,688.371C2010.15,688.371 2015.65,688.371 2025.34,689.157C2035.03,689.942 2030.58,707.488 2042.36,713.773C2054.15,720.059 2052.31,732.89 2052.31,754.626C2052.31,776.362 2056.24,781.338 2064.62,781.338C2073,781.338 2077.19,786.052 2077.19,799.407L2077.19,843.403C2077.19,861.211 2082.95,865.139 2103.12,865.139C2123.28,865.139 2120.4,870.638 2120.14,881.113C2119.88,891.589 2110.19,898.659 2110.19,907.825L2110.19,1266.08C2110.19,1281.26 2112.28,1284.14 2120.4,1293.57C2143.97,1317.93 2148.68,1322.9 2165.18,1322.9C2181.68,1322.9 2183.51,1310.33 2186.92,1308.76C2190.32,1307.19 2226.46,1274.19 2226.46,1270.53C2226.46,1266.86 2215.2,1262.93 2215.2,1243.55C2215.2,1224.17 2229.34,1225.75 2229.08,1217.1C2228.82,1208.46 2206.04,1202.7 2206.04,1179.66C2206.04,1161.06 2213.63,1158.18 2229.61,1142.21C2245.58,1126.23 2249.25,1122.83 2249.25,1118.38L2249.25,1102.92C2249.25,1093.24 2259.98,1088.26 2259.98,1084.59C2259.98,1080.93 2260.77,1081.71 2245.58,1067.31C2230.39,1052.91 2233.79,1052.12 2233.79,1035.36C2233.79,1018.6 2258.67,1005.77 2258.67,998.958C2258.67,992.15 2247.94,996.602 2247.94,973.818C2247.94,959.153 2261.29,952.868 2261.29,943.703L2261.29,884.256C2261.29,856.759 2268.62,867.234 2281.98,863.83C2295.34,860.425 2295.07,853.616 2295.07,836.332C2295.07,789.194 2294.81,787.623 2305.29,782.123C2315.76,776.624 2319.43,775.838 2320.48,762.482C2321.52,749.127 2318.38,726.081 2324.93,720.059C2331.48,714.035 2337.5,711.678 2340.12,702.512C2342.74,693.347 2347.71,690.204 2354,689.68C2360.28,689.157 2375.47,692.299 2380.19,678.419C2384.9,664.54 2385.68,664.802 2397.99,660.612C2410.3,656.422 2412.4,653.803 2412.4,625.52C2412.4,597.237 2410.3,591.214 2394.59,586.238Z" style="fill:rgb(125,133,167);fill-rule:nonzero;"></path>
    </g>
    <g transform="matrix(0.687742,0,0,0.687742,-272.691,1066.06)">
        <path d="M3544.68,1468.28L3389.41,1800.64L2893.18,2862.91L2396.95,1800.64L2241.68,1468.28C2021.17,996.162 2354.51,446.383 2875.42,434.642C2881.32,434.526 2887.22,434.469 2893.18,434.469C2899.13,434.469 2905.03,434.526 2910.93,434.642C3431.85,446.383 3765.18,996.162 3544.68,1468.28Z" style="fill:rgb(43,59,173);fill-rule:nonzero;"></path>
        <path d="M3466.66,1121.77C3466.66,1438.49 3209.9,1695.25 2893.18,1695.25C2576.45,1695.25 2319.69,1438.49 2319.69,1121.77C2319.69,805.038 2576.45,548.28 2893.18,548.28C3209.9,548.28 3466.66,805.038 3466.66,1121.77Z" style="fill:white;fill-rule:nonzero;"></path>
        <path d="M3413.29,1121.77C3413.29,1409.01 3180.43,1641.88 2893.18,1641.88C2605.93,1641.88 2373.07,1409.01 2373.07,1121.77C2373.07,834.515 2605.93,601.653 2893.18,601.653C3180.43,601.653 3413.29,834.515 3413.29,1121.77Z" style="fill:rgb(43,59,173);fill-rule:nonzero;"></path>
        <path d="M3358.88,1121.77C3358.88,1378.96 3150.38,1587.46 2893.18,1587.46C2635.98,1587.46 2427.48,1378.96 2427.48,1121.77C2427.48,864.565 2635.98,656.064 2893.18,656.064C3150.38,656.064 3358.88,864.565 3358.88,1121.77Z" style="fill:white;fill-rule:nonzero;"></path>
        <path d="M2893.18,2862.91L2893.18,1695.25C3209.9,1695.25 3466.66,1438.49 3466.66,1121.77C3466.66,805.038 3209.9,548.28 2893.18,548.28L2893.18,434.469C2899.13,434.469 2905.03,434.526 2910.93,434.642C3320.19,443.866 3613.66,785.187 3613.74,1160.03C3613.76,1236.1 3601.7,1313.53 3576.07,1389.86C3573.95,1396.17 3571.73,1402.48 3569.43,1408.77C3562.13,1428.71 3553.88,1448.57 3544.68,1468.28L3439.97,1692.41L3423.03,1728.68L3389.41,1800.64L3326.35,1935.63L3317.87,1953.77L2893.18,2862.91Z" style="fill:rgb(17,24,69);fill-rule:nonzero;"></path>
        <path d="M2893.18,1695.25L2893.18,1641.88C3180.43,1641.88 3413.29,1409.01 3413.29,1121.77C3413.29,834.515 3180.43,601.653 2893.18,601.653L2893.18,548.28C3209.9,548.28 3466.66,805.038 3466.66,1121.77C3466.66,1438.49 3209.9,1695.25 2893.18,1695.25Z" style="fill:rgb(207,207,207);fill-rule:nonzero;"></path>
        <path d="M2893.18,1641.88L2893.18,1587.46C3150.38,1587.46 3358.88,1378.96 3358.88,1121.77C3358.88,864.565 3150.38,656.064 2893.18,656.064L2893.18,601.653C3180.43,601.653 3413.29,834.515 3413.29,1121.77C3413.29,1409.01 3180.43,1641.88 2893.18,1641.88Z" style="fill:rgb(17,24,69);fill-rule:nonzero;"></path>
        <path d="M2893.18,1587.46L2893.18,656.064C3150.38,656.064 3358.88,864.565 3358.88,1121.77C3358.88,1378.96 3150.38,1587.46 2893.18,1587.46Z" style="fill:rgb(207,207,207);fill-rule:nonzero;"></path>
    </g>
</svg><style>@media (prefers-color-scheme: light) { :root { filter: none; } }
</style></svg>