<?xml version="1.0" encoding="UTF-8" standalone="no"?>
<!DOCTYPE svg PUBLIC "-//W3C//DTD SVG 1.1//EN" "http://www.w3.org/Graphics/SVG/1.1/DTD/svg11.dtd">
<svg width="100%" height="100%" viewBox="0 0 3036 1265" version="1.1" xmlns="http://www.w3.org/2000/svg" xmlns:xlink="http://www.w3.org/1999/xlink" xml:space="preserve" xmlns:serif="http://www.serif.com/" style="fill-rule:evenodd;clip-rule:evenodd;stroke-linejoin:round;stroke-miterlimit:2;">
    <g transform="matrix(1,0,0,1,-1010.11,-1193.99)">
        <path d="M1723.32,1419.32C1692.93,1444.99 1640.85,1428.25 1637.15,1465.02C1633.89,1497.38 1618.32,1484.64 1564.42,1511.91C1534.85,1526.86 1535.86,1560.72 1515.92,1574.75C1502.45,1584.23 1476.13,1581.49 1453.54,1587.52C1431.25,1593.48 1351.33,1617.49 1218,1658.66C1130.64,1685.64 1141.98,1685.38 1103.02,1752.77C1086.02,1782.17 1062.92,1822.07 1021.26,1897.86C1006.94,1923.9 1029.62,1944.94 1051.77,1957.34C1076.73,1971.29 1100.33,1987.88 1153.07,2017.7C1185.96,2036.29 1237.52,2062.22 1252.26,2065.55C1264.16,2068.24 1280.83,2069.95 1288.49,2071.95C1317.55,2079.56 1285.7,2117.86 1278.97,2157.91C1271.17,2204.23 1302.83,2207.3 1334.36,2213.76C1371.94,2221.45 1328.33,2277.13 1329.12,2305.35C1329.69,2325.73 1333.1,2338.07 1373.76,2339.53C1421.42,2341.24 1395.38,2370.75 1401.34,2400.34C1407.29,2429.93 1424.06,2451.6 1458.77,2451C1493.73,2450.4 1537.82,2452.73 1595.8,2451C1654.37,2449.25 1691.51,2425.44 1701.05,2394.49C1711.41,2360.88 1729.01,2355.01 1769.66,2341.49C1807.61,2328.86 1832.33,2313.08 1834.19,2298.38C1836.19,2282.6 1842.98,2253.99 1849.17,2234.94C1859.76,2202.35 1918.17,2222.23 1954.41,2179.54C1981.42,2147.72 2025.85,2149.54 2108.16,2151.32C2154.5,2152.32 2207.45,2148 2210.35,2122.69C2213.44,2095.58 2223.2,2079.25 2273.79,2079.25C2324.38,2079.25 2319.99,2079.54 2387.44,2079.25C2455.97,2078.96 2516,2089.78 2514.78,2026.89C2513.32,1951.64 2519.61,1965.67 2568.29,1963.48C2597.94,1962.15 2632.75,1989.7 2664.47,1989.7L3899.51,1989.7C3948.05,1989.7 3973.35,1990.56 3990.64,1972.67C4003.28,1959.59 4038.44,1914.65 4039,1892.16C4039.71,1863.72 4009.69,1836.24 3996.53,1827.37C3979.28,1815.75 3948.91,1807.66 3946.18,1805.94C3927.32,1794.04 3777.23,1717.88 3763.37,1717.88C3753.47,1717.88 3751.57,1741.7 3697.17,1741.21C3629.76,1740.59 3620.59,1711.93 3594.98,1712.65C3562.31,1713.58 3581.36,1758.02 3498.16,1760.95C3437.42,1763.09 3375.5,1717.24 3351.3,1706.99C3332.82,1699.16 3293.2,1673.73 3274.04,1671.37C3257.36,1669.31 3262.18,1671.37 3225.47,1671.37C3188.81,1671.37 3169.94,1649.7 3156.04,1649.7C3144.18,1649.7 3134.1,1662.18 3126.59,1668.88C3077.29,1712.83 3084.26,1701.17 3030.56,1702.88C2970.35,1704.79 2924.45,1654.05 2898.68,1652.81C2877.89,1651.81 2900.75,1673.48 2830.45,1673.48C2774.9,1673.48 2764.09,1647.59 2729.37,1647.59C2694.65,1647.59 2684.35,1648.48 2580.19,1647.59C2464.03,1646.59 2497.7,1641.88 2486.82,1609.67C2476.85,1580.16 2448.1,1583 2382.66,1583.59C2219.81,1585.07 2267.29,1576.92 2230.32,1546.53C2215.23,1534.12 2144.54,1539.87 2119.92,1537.86C2074.45,1534.15 2081.13,1536.78 2056.22,1517.9C2039.87,1505.51 2044.29,1509.04 2015.76,1501.24C1998.86,1496.61 1993.93,1491.54 1994.15,1482.69C1994.46,1470.14 2004.03,1448.94 1979.5,1441C1931.45,1425.46 1944.6,1438.55 1925.04,1401.66C1915.17,1383.03 1824.54,1388.53 1789.12,1390C1743.81,1391.88 1740.54,1404.79 1723.32,1419.32ZM1458.09,1672.15C1481.09,1671.52 1501.62,1674.7 1494.82,1703.27C1475.55,1784.32 1428.9,1896.32 1400.54,1926.6C1384.73,1943.49 1373.03,1948.18 1342.7,1948.71C1329.1,1948.95 1313.25,1950.3 1300.79,1944.52C1262.07,1926.55 1214.98,1898.03 1191.12,1886.69C1173.83,1878.47 1173.86,1859.51 1177.02,1853.02C1196.61,1812.87 1207.11,1797.24 1218.02,1773.89C1233.67,1740.44 1234.86,1740.74 1259.67,1730.6C1332.77,1700.74 1347.88,1699.68 1393.71,1683.23C1418.53,1674.32 1433.17,1672.82 1458.09,1672.15Z" style="fill:rgb(123,133,167);fill-rule:nonzero;"/>
    </g>
    <g transform="matrix(1,0,0,1,-1010.11,-1193.99)">
        <path d="M1723.32,1419.32C1692.93,1444.99 1640.85,1428.25 1637.15,1465.02C1633.89,1497.38 1618.32,1484.64 1564.42,1511.91C1534.85,1526.86 1535.86,1560.72 1515.92,1574.75C1502.45,1584.23 1476.13,1581.49 1453.54,1587.52C1439.81,1591.19 1404.22,1601.7 1347.76,1618.86C1312.55,1629.56 1269.21,1642.85 1218,1658.66C1130.64,1685.64 1141.98,1685.38 1103.02,1752.77C1086.02,1782.17 1062.92,1822.07 1021.26,1897.86C1006.94,1923.9 1029.62,1944.94 1051.77,1957.34C1076.73,1971.29 1100.33,1987.88 1153.07,2017.7C1185.96,2036.29 1237.52,2062.22 1252.26,2065.55C1264.16,2068.24 1280.83,2069.95 1288.49,2071.95C1317.55,2079.56 1285.7,2117.86 1278.97,2157.91C1271.17,2204.23 1302.83,2207.3 1334.36,2213.76C1371.94,2221.45 1328.33,2277.13 1329.12,2305.35C1329.69,2325.73 1333.1,2338.07 1373.76,2339.53C1421.42,2341.24 1395.38,2370.75 1401.34,2400.34C1407.29,2429.93 1424.06,2451.6 1458.77,2451C1493.73,2450.4 1537.82,2452.73 1595.8,2451C1654.37,2449.25 1691.51,2425.44 1701.05,2394.49C1711.41,2360.88 1729.01,2355.01 1769.66,2341.49C1807.61,2328.86 1832.33,2313.08 1834.19,2298.38C1836.19,2282.6 1842.98,2253.99 1849.17,2234.94C1859.76,2202.35 1918.17,2222.23 1954.41,2179.54C1981.42,2147.72 2025.85,2149.54 2108.16,2151.32C2154.5,2152.32 2207.45,2148 2210.35,2122.69C2213.44,2095.58 2223.2,2079.25 2273.79,2079.25C2324.38,2079.25 2319.99,2079.54 2387.44,2079.25C2455.97,2078.96 2516,2089.78 2514.78,2026.89C2513.32,1951.64 2519.61,1965.67 2568.29,1963.48C2597.94,1962.15 2632.75,1989.7 2664.47,1989.7L3899.51,1989.7C3948.05,1989.7 3973.35,1990.56 3990.64,1972.67C4003.28,1959.59 4038.44,1914.65 4039,1892.16C4039.71,1863.72 4009.69,1836.24 3996.53,1827.37C3979.28,1815.75 3948.91,1807.66 3946.18,1805.94C3927.32,1794.04 3777.23,1717.88 3763.37,1717.88C3753.47,1717.88 3751.57,1741.7 3697.17,1741.21C3629.76,1740.59 3620.59,1711.93 3594.98,1712.65C3562.31,1713.58 3581.36,1758.02 3498.16,1760.95C3437.42,1763.09 3375.5,1717.24 3351.3,1706.99C3332.82,1699.16 3293.2,1673.73 3274.04,1671.37C3257.36,1669.31 3262.18,1671.37 3225.47,1671.37C3188.81,1671.37 3169.94,1649.7 3156.04,1649.7C3144.18,1649.7 3134.1,1662.18 3126.59,1668.88C3077.29,1712.83 3084.26,1701.17 3030.56,1702.88C2970.35,1704.79 2924.45,1654.05 2898.68,1652.81C2877.89,1651.81 2900.75,1673.48 2830.45,1673.48C2774.9,1673.48 2764.09,1647.59 2729.37,1647.59C2694.65,1647.59 2684.35,1648.48 2580.19,1647.59C2464.03,1646.59 2497.7,1641.88 2486.82,1609.67C2476.85,1580.16 2448.1,1583 2382.66,1583.59C2219.81,1585.07 2267.29,1576.92 2230.32,1546.53C2215.23,1534.12 2144.54,1539.87 2119.92,1537.86C2074.45,1534.15 2081.13,1536.78 2056.22,1517.9C2039.87,1505.51 2044.29,1509.04 2015.76,1501.24C1998.86,1496.61 1993.93,1491.54 1994.15,1482.69C1994.46,1470.14 2004.03,1448.94 1979.5,1441C1931.45,1425.46 1944.6,1438.55 1925.04,1401.66C1915.17,1383.03 1824.54,1388.53 1789.12,1390C1743.81,1391.88 1740.54,1404.79 1723.32,1419.32ZM1458.09,1672.15C1481.09,1671.52 1501.62,1674.7 1494.82,1703.27C1475.55,1784.32 1428.9,1896.32 1400.54,1926.6C1384.73,1943.49 1373.03,1948.18 1342.7,1948.71C1329.1,1948.95 1313.25,1950.3 1300.79,1944.52C1262.07,1926.55 1214.98,1898.03 1191.12,1886.69C1173.83,1878.47 1173.86,1859.51 1177.02,1853.02C1196.61,1812.87 1207.11,1797.24 1218.02,1773.89C1233.67,1740.44 1234.86,1740.74 1259.67,1730.6C1332.77,1700.74 1347.88,1699.68 1393.71,1683.23C1418.53,1674.32 1433.17,1672.82 1458.09,1672.15ZM1449.65,2122.41L1303.08,2206.29M1996.06,1490.65L1778.29,1600.01L1834.82,1697.18L1600.88,1741.45M1834.82,1697.18L2469.88,1673.95M1016.78,1908.87L1149.35,1883.59M1153.07,2017.7L1217.11,1937.58L1260.62,1924.15M1514.48,2451.65L1696.25,2068.39M1867.3,1956.57L2922.3,1808.75M1869.29,1974.29C1869.29,2029.75 1811.88,2074.7 1741.06,2074.7C1670.24,2074.7 1612.83,2029.75 1612.83,1974.29C1612.83,1918.84 1670.24,1873.88 1741.06,1873.88C1811.88,1873.88 1869.29,1918.84 1869.29,1974.29ZM1066.06,1817.35L1610.11,2250.01M1502.86,1580.09L1686.2,1883.51M2388.05,1583.54L2629.01,1849.77L2612.43,1974.79M2734.26,1835.02L2687.86,1647.88M3045.41,1791.47L3083.76,1989.7M1649.98,2165.94L1834.82,2236.29L2429.58,1799.25M3216.56,1670.93L3162.15,1775.28M2177.72,1913.07L3288.31,1757.46L3319.92,1690.83M3030.56,1702.88L3045.35,1791.5M1337.28,1701.77L1206.21,1662.33M2097.71,1687.47L2128.04,1919.95L2210.35,2122.69M3932.76,1798.35L3984.22,1883.51L3689.89,1969.8C3689.89,1969.8 3674.54,1980.45 3656.88,1989.7M2617.52,1935.42L3077.15,1955.55L3612.26,1799.25L3698.95,1989.7M3605.07,1989.7C3605.07,1950.55 3564.2,1923.49 3514.2,1923.49C3464.19,1923.49 3423.66,1950.55 3423.66,1989.7M3309.53,1989.7L3271.69,1826.69L3108.4,1858.99M1434.69,1870.41L1639.99,1807.03" style="fill:none;fill-rule:nonzero;stroke:rgb(33,45,82);stroke-width:13.33px;"/>
    </g>
    <g transform="matrix(0.28779,0,0,0.28779,477.783,-125.036)">
        <path d="M3544.68,1468.28L3389.41,1800.64L2893.18,2862.91L2396.95,1800.64L2241.68,1468.28C2021.17,996.162 2354.51,446.383 2875.42,434.642C2881.32,434.526 2887.22,434.469 2893.18,434.469C2899.13,434.469 2905.03,434.526 2910.93,434.642C3431.85,446.383 3765.18,996.162 3544.68,1468.28Z" style="fill:rgb(43,59,173);fill-rule:nonzero;"/>
        <path d="M3466.66,1121.77C3466.66,1438.49 3209.9,1695.25 2893.18,1695.25C2576.45,1695.25 2319.69,1438.49 2319.69,1121.77C2319.69,805.038 2576.45,548.28 2893.18,548.28C3209.9,548.28 3466.66,805.038 3466.66,1121.77Z" style="fill:white;fill-rule:nonzero;"/>
        <path d="M3413.29,1121.77C3413.29,1409.01 3180.43,1641.88 2893.18,1641.88C2605.93,1641.88 2373.07,1409.01 2373.07,1121.77C2373.07,834.515 2605.93,601.653 2893.18,601.653C3180.43,601.653 3413.29,834.515 3413.29,1121.77Z" style="fill:rgb(43,59,173);fill-rule:nonzero;"/>
        <path d="M3358.88,1121.77C3358.88,1378.96 3150.38,1587.46 2893.18,1587.46C2635.98,1587.46 2427.48,1378.96 2427.48,1121.77C2427.48,864.565 2635.98,656.064 2893.18,656.064C3150.38,656.064 3358.88,864.565 3358.88,1121.77Z" style="fill:white;fill-rule:nonzero;"/>
        <path d="M2893.18,2862.91L2893.18,1695.25C3209.9,1695.25 3466.66,1438.49 3466.66,1121.77C3466.66,805.038 3209.9,548.28 2893.18,548.28L2893.18,434.469C2899.13,434.469 2905.03,434.526 2910.93,434.642C3320.19,443.866 3613.66,785.187 3613.74,1160.03C3613.76,1236.1 3601.7,1313.53 3576.07,1389.86C3573.95,1396.17 3571.73,1402.48 3569.43,1408.77C3562.13,1428.71 3553.88,1448.57 3544.68,1468.28L3439.97,1692.41L3423.03,1728.68L3389.41,1800.64L3326.35,1935.63L3317.87,1953.77L2893.18,2862.91Z" style="fill:rgb(17,24,69);fill-rule:nonzero;"/>
        <path d="M2893.18,1695.25L2893.18,1641.88C3180.43,1641.88 3413.29,1409.01 3413.29,1121.77C3413.29,834.515 3180.43,601.653 2893.18,601.653L2893.18,548.28C3209.9,548.28 3466.66,805.038 3466.66,1121.77C3466.66,1438.49 3209.9,1695.25 2893.18,1695.25Z" style="fill:rgb(207,207,207);fill-rule:nonzero;"/>
        <path d="M2893.18,1641.88L2893.18,1587.46C3150.38,1587.46 3358.88,1378.96 3358.88,1121.77C3358.88,864.565 3150.38,656.064 2893.18,656.064L2893.18,601.653C3180.43,601.653 3413.29,834.515 3413.29,1121.77C3413.29,1409.01 3180.43,1641.88 2893.18,1641.88Z" style="fill:rgb(17,24,69);fill-rule:nonzero;"/>
        <path d="M2893.18,1587.46L2893.18,656.064C3150.38,656.064 3358.88,864.565 3358.88,1121.77C3358.88,1378.96 3150.38,1587.46 2893.18,1587.46Z" style="fill:rgb(207,207,207);fill-rule:nonzero;"/>
    </g>
    <g transform="matrix(1,0,0,1,-1010.11,-1193.99)">
        <g transform="matrix(1,0,0,1,901.074,-953.347)">
            <path d="M2409.83,3405L2202.4,3405L2288.36,3001.35L2066.91,3405L1939.84,3405L1897.79,2987.34L1808.09,3405L1724,3405L1850.14,2811.67L2088.41,2811.67L2117.37,3146.18L2296.77,2811.67L2536.91,2811.67L2409.83,3405Z" style="fill:rgb(17,24,69);fill-rule:nonzero;"/>
        </g>
        <g transform="matrix(-1,0,0,-1,4436.77,5263.33)">
            <path d="M2409.83,3405L2202.4,3405L2288.36,3001.35L2066.91,3405L1939.84,3405L1897.79,2987.34L1808.09,3405L1724,3405L1850.14,2811.67L2088.41,2811.67L2117.37,3146.18L2296.77,2811.67L2536.91,2811.67L2409.83,3405Z" style="fill:rgb(17,24,69);fill-rule:nonzero;"/>
        </g>
        <g transform="matrix(1,0,0,1,605.344,-953.352)">
            <path d="M3017.77,3069.56L3248.56,2810.74L3354.15,2810.74L3144.85,3037.79L3286.87,3405L3083.18,3405L3000.95,3144.31L2945.83,3405L2744,3405L2871.04,2811.68L3072.9,2811.67L3017.77,3069.56Z" style="fill:rgb(17,24,69);fill-rule:nonzero;"/>
        </g>
    </g>
</svg>
